<svg xmlns="http://www.w3.org/2000/svg" viewBox="0 0 16 16" fill="#000000" id="Arrow-Arc-Right--Streamline-Phosphor" height="16" width="16"><desc>Arrow Arc Right Streamline Icon: https://streamlinehq.com</desc><path d="M15.84 4.51573125v4.645925c0 0.3207375 -0.26000625 0.58074375 -0.5807375 0.58074375h-4.64593125c-0.44705 0 -0.7264625 -0.48395625 -0.50293125 -0.8711125 0.10373125 -0.179675 0.2954625 -0.2903625 0.50293125 -0.29036875h3.23763125l-1.62316875 -1.61228125c-3.47645 -3.4780875 -9.41436875 -1.88851875 -10.68825 2.86121875 -0.14474375 0.539675 -0.21805625 1.0960125 -0.2180625 1.6547625 0 0.44705625 -0.48395 0.7264625 -0.8711125 0.5029375 -0.17968125 -0.1037375 -0.29036875 -0.29545625 -0.29036875 -0.5029375C0.1599 5.6729125 6.45119375 2.0404875 11.48433125 4.94625c0.57145 0.32991875 1.09718125 0.733325 1.56375625 1.1999125l1.63043125 1.6195375V4.51573125c0 -0.44705625 0.48395 -0.7264625 0.8711125 -0.5029375 0.17968125 0.1037375 0.29036875 0.29545625 0.29036875 0.5029375Z" stroke-width="0.0625"></path></svg>