<svg xmlns="http://www.w3.org/2000/svg" viewBox="0 0 16 16" fill="#000000" id="Arrows-Clockwise--Streamline-Phosphor" height="16" width="16"><desc>Arrows Clockwise Streamline Icon: https://streamlinehq.com</desc><path d="M15.84 1.4672625v3.92c0 0.36081875 -0.29251875 0.65331875 -0.65333125 0.6533375h-3.92c-0.5029375 0 -0.817275 -0.54444375 -0.56580625 -0.98 0.11670625 -0.20214375 0.3323875 -0.32666875 0.56580625 -0.32666875h2.3430125l-1.19478125 -1.19478125c-1.21424375 -1.21976875 -2.86284375 -1.9079375 -4.58395 -1.91345h-0.03675c-1.70669375 -0.004 -3.34635625 0.6640125 -4.56435 1.85955 -0.3676375 0.3432 -0.9689375 0.159725 -1.0823375 -0.3302625 -0.05023125 -0.21703125 0.01358125 -0.4447 0.16930625 -0.60400625 3.072075 -3.00251875 7.98826875 -2.97375 11.025 0.06451875l1.1915125 1.19478125V1.4672625c0 -0.50293125 0.54444375 -0.81726875 0.98 -0.5658 0.20214375 0.11670625 0.32666875 0.3323875 0.32666875 0.5658Zm-3.06985 11.0486875c-2.55980625 2.50044375 -6.65476875 2.4764125 -9.18505 -0.0539l-1.19478125 -1.1947875h2.3430125c0.5029375 0 0.817275 -0.54444375 0.56580625 -0.98 -0.1167 -0.20213125 -0.3324 -0.32665625 -0.56580625 -0.3266625h-3.92C0.45249375 9.96058125 0.16 10.25309375 0.16 10.61393125v3.92c0 0.5029375 0.54444375 0.81726875 0.98 0.5658 0.20214375 -0.11670625 0.32666875 -0.3323875 0.32666875 -0.5658v-2.34301875l1.19478125 1.1947875c1.45710625 1.4644375 3.4360375 2.2904375 5.50188125 2.2964625h0.0432875c2.0482625 0.00528125 4.01614375 -0.7966 5.47738125 -2.23195 0.3515625 -0.35965 0.18195625 -0.96500625 -0.30529375 -1.08964375 -0.21581875 -0.05520625 -0.4449 0.0033625 -0.6077375 0.15538125Z" stroke-width="0.0625"></path></svg>