<svg xmlns="http://www.w3.org/2000/svg" viewBox="0 0 16 16" fill="#000000" id="Arrow-Arc-Left--Streamline-Phosphor" height="16" width="16"><desc>Arrow Arc Left Streamline Icon: https://streamlinehq.com</desc><path d="M15.84 11.48461875c0 0.44705625 -0.48395 0.7264625 -0.8711125 0.5029375 -0.17968125 -0.1037375 -0.29036875 -0.29545625 -0.29036875 -0.5029375 -0.0006 -4.9176 -5.3244375 -7.99044375 -9.5829 -5.531125 -0.48305625 0.27896875 -0.9274875 0.6200125 -1.3219625 1.0144125l-1.62461875 1.6130125h3.23763125c0.44705 0 0.7264625 0.48395 0.50293125 0.87110625 -0.10373125 0.179675 -0.2954625 0.2903625 -0.50293125 0.290375H0.74074375c-0.3207375 0 -0.58074375 -0.2600125 -0.58074375 -0.58074375V4.51573125c0 -0.44705625 0.48395 -0.7264625 0.8711125 -0.5029375 0.17968125 0.1037375 0.29036875 0.29545625 0.29036875 0.5029375v3.24996875l1.63188125 -1.62099375c4.1105625 -4.108425 11.127175 -2.22638125 12.6299 3.3876875 0.1704375 0.63674375 0.25675 1.29306875 0.2567375 1.952225Z" stroke-width="0.0625"></path></svg>