<svg xmlns="http://www.w3.org/2000/svg" viewBox="0 0 16 16" fill="#000000" id="Backspace--Streamline-Phosphor" height="16" width="16"><desc>Backspace Streamline Icon: https://streamlinehq.com</desc><path d="M14.7200125 1.84006875H4.397225c-0.39314375 0.00113125 -0.7572125 0.2073125 -0.9603875 0.54389375L0.239975 7.7116c-0.10663125 0.17748125 -0.10663125 0.39931875 0 0.57679375l3.1968625 5.32764375c0.203175 0.33658125 0.56724375 0.5427625 0.9603875 0.54389375h10.3227875c0.61855 0 1.1199875 -0.5014375 1.1199875 -1.1199875V2.96005625c0 -0.61855 -0.5014375 -1.1199875 -1.1199875 -1.1199875ZM3.91703125 13.32834375l0.48019375 -0.2884Zm10.80298125 -0.2884H4.397225L1.3732625 8l3.0239625 -5.03994375h10.3227875Zm-7.6761125 -3.75615625L8.32838125 8l-1.28448125 -1.2837875c-0.30499375 -0.3049875 -0.16545 -0.825775 0.251175 -0.93740625 0.19335625 -0.0518125 0.39966875 0.00346875 0.5412125 0.14501875l1.2837875 1.28448125 1.2837875 -1.28448125c0.3049875 -0.30499375 0.82576875 -0.16545 0.93740625 0.251175 0.0518125 0.19335625 -0.00346875 0.39966875 -0.14501875 0.5412125L9.9117625 8l1.2844875 1.2837875c0.30499375 0.3049875 0.16545 0.825775 -0.251175 0.93740625 -0.19335625 0.0518125 -0.39966875 -0.00346875 -0.5412125 -0.14501875l-1.2837875 -1.28448125 -1.2837875 1.28448125c-0.3049875 0.30499375 -0.825775 0.16545 -0.93740625 -0.251175 -0.0518125 -0.19335625 0.00346875 -0.39966875 0.14501875 -0.5412125Z" stroke-width="0.0625"></path></svg>