<svg xmlns="http://www.w3.org/2000/svg" viewBox="0 0 16 16" fill="#000000" id="Bookmarks--Streamline-Phosphor" height="16" width="16"><desc>Bookmarks Streamline Icon: https://streamlinehq.com</desc><path d="M12.8246125 0.16H5.58769375c-0.6661375 0 -1.20615 0.5400125 -1.20615 1.20615v1.20615625H3.1753875c-0.6661375 0 -1.20615 0.5400125 -1.20615 1.20615v11.45845c-0.0000125 0.46425 0.50254375 0.75441875 0.9046 0.5223 0.0168375 -0.00971875 0.03319375 -0.02024375 0.0490125 -0.03155l3.871 -2.7651 3.87174375 2.7651c0.3781875 0.26926875 0.9060375 0.0281625 0.9501375 -0.4339875 0.0018 -0.01886875 0.0027125 -0.0378125 0.002725 -0.0567625v-2.96336875l1.45869375 1.04181875c0.37776875 0.26984375 0.9059875 0.02954375 0.9508 -0.43253125 0.001875 -0.01935625 0.0028125 -0.03878125 0.0028125 -0.058225V1.36615c0 -0.6661375 -0.5400125 -1.20615 -1.20615 -1.20615Zm-2.41230625 13.90543125 -3.268675 -2.33691875c-0.20969375 -0.1497875 -0.4913875 -0.1497875 -0.701075 0l-3.26716875 2.3361625V3.77845625h7.23691875Zm2.41230625 -2.41230625 -1.20615625 -0.86390625V3.77845625c0 -0.6661375 -0.5400125 -1.20615 -1.20615 -1.20615H5.58769375V1.36615h7.23691875Z" stroke-width="0.0625"></path></svg>