<svg xmlns="http://www.w3.org/2000/svg" viewBox="0 0 16 16" fill="#000000" id="Broadcast--Streamline-Phosphor" height="16" width="16"><desc>Broadcast Streamline Icon: https://streamlinehq.com</desc><path d="M8 5.5a2.5 2.5 0 1 0 2.5 2.5 2.5 2.5 0 0 0 -2.5 -2.5Zm0 4a1.5 1.5 0 1 1 1.5 -1.5 1.5 1.5 0 0 1 -1.5 1.5Zm4.606875 0.44625a5 5 0 0 1 -0.88 1.3875 0.5 0.5 0 0 1 -0.745 -0.666875 3.996875 3.996875 0 0 0 0 -5.333125 0.5 0.5 0 1 1 0.745 -0.666875 5.005 5.005 0 0 1 0.88 5.279375ZM4.3125 6.443125a4 4 0 0 0 0.70375 4.22375 0.5 0.5 0 0 1 -0.745 0.666875 4.995625 4.995625 0 0 1 0 -6.666875 0.5 0.5 0 1 1 0.746875 0.666875A3.985625 3.985625 0 0 0 4.3125 6.443125ZM15.5 8a7.47375 7.47375 0 0 1 -2.143125 5.25 0.5 0.5 0 1 1 -0.71375 -0.7 6.49375 6.49375 0 0 0 0 -9.0975A0.5 0.5 0 1 1 13.356875 2.75 7.47375 7.47375 0 0 1 15.5 8ZM3.356875 12.54875A0.5 0.5 0 1 1 2.643125 13.25a7.491875 7.491875 0 0 1 0 -10.5 0.5 0.5 0 1 1 0.71375 0.7 6.49375 6.49375 0 0 0 0 9.0975Z" stroke-width="0.0625"></path></svg>