<svg xmlns="http://www.w3.org/2000/svg" viewBox="0 0 16 16" fill="#000000" id="Calendar--Streamline-Phosphor" height="16" width="16"><desc>Calendar Streamline Icon: https://streamlinehq.com</desc><path d="M14.03076875 1.36615625h-1.80923125v-0.60308125c0 -0.46425 -0.5025625 -0.7544 -0.9046125 -0.522275 -0.18659375 0.107725 -0.3015375 0.30681875 -0.3015375 0.522275v0.60308125H4.9846125v-0.60308125c0 -0.46425 -0.5025625 -0.7544 -0.9046125 -0.522275 -0.18659375 0.107725 -0.3015375 0.30681875 -0.3015375 0.522275v0.60308125H1.96923125c-0.66614375 0 -1.20615625 0.5400125 -1.20615625 1.20615v12.0615375c0 0.66614375 0.5400125 1.20615625 1.20615625 1.20615625h12.0615375c0.66611875 -0.00003125 1.20615625 -0.5400375 1.20615625 -1.20615625V2.57230625c0 -0.6661625 -0.53999375 -1.20618125 -1.20615625 -1.20615ZM3.7784625 2.57230625v0.603075c0 0.46425 0.5025625 0.75440625 0.9046125 0.52228125 0.18659375 -0.107725 0.3015375 -0.30681875 0.3015375 -0.52228125v-0.603075h6.030775v0.603075c0 0.46425 0.5025625 0.75440625 0.9046125 0.52228125 0.18659375 -0.107725 0.3015375 -0.30681875 0.3015375 -0.52228125v-0.603075h1.80923125v2.41230625H1.96923125V2.57230625Zm10.25230625 12.0615375H1.96923125V6.19076875h12.0615375v8.443075ZM6.79384375 8v4.8246125c0 0.46425 -0.5025625 0.75440625 -0.9046125 0.52228125 -0.18659375 -0.107725 -0.3015375 -0.30681875 -0.3015375 -0.52228125v-3.8491375l-0.3332 0.16735625c-0.41550625 0.20775 -0.9000875 -0.1122 -0.87225625 -0.5759125 0.01291875 -0.21520625 0.13966875 -0.407175 0.3325 -0.50359375l1.20615625 -0.60308125c0.4011625 -0.20074375 0.873275 0.09116875 0.87295 0.53975625Zm4.45975625 2.2954625 -1.44436875 1.926075h1.20615c0.46425 0 0.75440625 0.5025625 0.52228125 0.90461875 -0.107725 0.18658125 -0.30683125 0.301525 -0.52228125 0.3015375h-2.41230625c-0.46425 -0.000025 -0.75440625 -0.5026 -0.5222625 -0.9046375 0.01205 -0.020875 0.02534375 -0.04100625 0.0398 -0.0602875l2.169575 -2.89250625c0.27881875 -0.37119375 0.05125625 -0.905025 -0.40961875 -0.96089375 -0.23911875 -0.0289875 -0.47255625 0.0870875 -0.59375625 0.29524375 -0.2215375 0.40798125 -0.80165 0.42314375 -1.0442 0.0273 -0.11851875 -0.193425 -0.11846875 -0.43699375 0.000125 -0.630375 0.6968375 -1.2058875 2.43776875 -1.20521875 3.13368125 0.0012 0.15846875 0.27471875 0.2419375 0.58626875 0.24204375 0.90341875 0.001275 0.3933125 -0.1269375 0.7761125 -0.3648625 1.08930625Z" stroke-width="0.0625"></path></svg>