<svg xmlns="http://www.w3.org/2000/svg" viewBox="0 0 16 16" fill="#000000" id="Calendar-Heart--Streamline-Phosphor" height="16" width="16"><desc>Calendar Heart Streamline Icon: https://streamlinehq.com</desc><path d="M14.03076875 1.36615625h-1.80923125v-0.60308125c0 -0.46425 -0.5025625 -0.7544 -0.9046125 -0.522275 -0.18659375 0.107725 -0.3015375 0.30681875 -0.3015375 0.522275v0.60308125H4.9846125v-0.60308125c0 -0.46425 -0.5025625 -0.7544 -0.9046125 -0.522275 -0.18659375 0.107725 -0.3015375 0.30681875 -0.3015375 0.522275v0.60308125H1.96923125c-0.66614375 0 -1.20615625 0.5400125 -1.20615625 1.20615v12.0615375c0 0.66614375 0.5400125 1.20615625 1.20615625 1.20615625h12.0615375c0.66611875 -0.00003125 1.20615625 -0.5400375 1.20615625 -1.20615625V2.57230625c0 -0.6661625 -0.53999375 -1.20618125 -1.20615625 -1.20615Zm0 13.2676875H1.96923125V2.57230625h1.80923125v0.603075c0 0.46425 0.5025625 0.75440625 0.9046125 0.52228125 0.18659375 -0.107725 0.3015375 -0.30681875 0.3015375 -0.52228125v-0.603075h6.03076875v0.603075c0 0.46425 0.50256875 0.75440625 0.90461875 0.52228125 0.18659375 -0.107725 0.3015375 -0.30681875 0.3015375 -0.52228125v-0.603075h1.80923125v12.0615375ZM9.80923125 5.58769375c-0.69283125 -0.0003875 -1.35219375 0.29796875 -1.80923125 0.818675 -1.2282875 -1.39274375 -3.50365625 -0.93355625 -4.09566875 0.82654375 -0.08315 0.2472125 -0.12565625 0.50626875 -0.12586875 0.7670875 0 2.75304375 3.7903375 4.679875 3.9516625 4.76129375 0.169875 0.08500625 0.369875 0.08500625 0.53975 0 0.161325 -0.08141875 3.9516625 -2.00825 3.9516625 -4.76129375 0 -1.33228125 -1.080025 -2.41230625 -2.41230625 -2.41230625ZM8 11.5378C6.96044375 10.95055625 4.9846125 9.5212625 4.9846125 8c0 -0.9285 1.00513125 -1.50880625 1.80923125 -1.0445625 0.3731875 0.2154625 0.60308125 0.61364375 0.60308125 1.0445625 0 0.46425 0.5025625 0.75440625 0.9046125 0.52228125 0.18659375 -0.10773125 0.3015375 -0.306825 0.3015375 -0.52228125 0 -0.9285 1.00513125 -1.50880625 1.80923125 -1.0445625 0.3731875 0.2154625 0.603075 0.61364375 0.603075 1.0445625 0 1.5220125 -1.975825 2.95130625 -3.01538125 3.5378Z" stroke-width="0.0625"></path></svg>