<svg xmlns="http://www.w3.org/2000/svg" viewBox="0 0 16 16" fill="#000000" id="Camera-Plus--Streamline-Phosphor" height="16" width="16"><desc>Camera Plus Streamline Icon: https://streamlinehq.com</desc><path d="M11.0153875 8.9046125c0 0.3330625 -0.27001875 0.6030625 -0.60308125 0.60308125h-1.80923125v1.80923125c0 0.46424375 -0.5025625 0.7544 -0.9046125 0.522275 -0.18659375 -0.107725 -0.3015375 -0.30681875 -0.3015375 -0.522275v-1.80923125H5.58769375c-0.46425 -0.000025 -0.7544125 -0.5026 -0.52226875 -0.9046375 0.10773125 -0.18658125 0.30681875 -0.30151875 0.52226875 -0.30151875h1.80923125v-1.80923125c0 -0.46425 0.5025625 -0.7544 0.9046125 -0.52228125 0.18659375 0.10773125 0.3015375 0.306825 0.3015375 0.52228125v1.80923125h1.80923125c0.3330625 0.00001875 0.603075 0.27001875 0.603075 0.603075ZM15.84 4.683075v8.44308125c0 0.999175 -0.81005 1.80918125 -1.80923125 1.809225H1.96923125C0.9699875 14.93543125 0.16 14.12539375 0.16 13.12615625V4.683075c0 -0.9992375 0.8099875 -1.809275 1.80923125 -1.80923125h2.0896625l0.8503375 -1.2724875c0.22329375 -0.3346875 0.59876875 -0.53599375 1.00110625 -0.53674375h4.179325c0.4023375 0.00075 0.7778125 0.20205625 1.00110625 0.53674375l0.8503375 1.2724875h2.0896625c0.99918125 0.00005 1.80923125 0.81005625 1.80923125 1.80923125Zm-1.20615625 0c0 -0.33305625 -0.2700125 -0.6030625 -0.603075 -0.603075h-2.41230625c-0.2017 0.00013125 -0.39011875 -0.10058125 -0.5020625 -0.26836875l-1.0267375 -1.5408625H5.9103375L4.8836 3.81163125c-0.11194375 0.1677875 -0.30035625 0.2685 -0.5020625 0.26836875H1.96923125c-0.33306875 0 -0.603075 0.27000625 -0.603075 0.603075v8.44308125c0 0.33308125 0.26999375 0.6030875 0.603075 0.603075h12.0615375c0.3330625 -0.0000125 0.603075 -0.27001875 0.603075 -0.603075Z" stroke-width="0.0625"></path></svg>