<svg xmlns="http://www.w3.org/2000/svg" viewBox="0 0 16 16" fill="#000000" id="Camera--Streamline-Phosphor" height="16" width="16"><desc>Camera Streamline Icon: https://streamlinehq.com</desc><path d="M14.03076875 2.87384375h-2.0896625l-1.02749375 -1.54085625c-0.11179375 -0.16756875 -0.29986875 -0.26825 -0.50130625 -0.268375H5.58769375c-0.2014375 0.000125 -0.3895125 0.10080625 -0.50130625 0.268375l-1.02825 1.54085625H1.96923125C0.9699875 2.8738 0.16 3.6838375 0.16 4.683075v8.44308125c0 0.9992375 0.8099875 1.809275 1.80923125 1.80923125h12.0615375c0.99918125 -0.00005 1.80923125 -0.81005625 1.80923125 -1.80923125V4.683075c0 -0.999175 -0.81005 -1.80918125 -1.80923125 -1.80923125Zm0.603075 10.2523125c0 0.33305625 -0.2700125 0.6030625 -0.603075 0.603075H1.96923125c-0.33308125 0.0000125 -0.603075 -0.26999375 -0.603075 -0.603075V4.683075c0 -0.33306875 0.27000625 -0.603075 0.603075 -0.603075h2.41230625c0.2017 0.00013125 0.39011875 -0.10058125 0.5020625 -0.26836875l1.0267375 -1.5408625h4.17856875l1.02749375 1.5408625c0.11194375 0.1677875 0.30035625 0.2685 0.5020625 0.26836875h2.41230625c0.33306875 0 0.603075 0.27000625 0.603075 0.603075ZM8 5.28615625c-2.55336875 -0.00011875 -4.1492 2.7639125 -2.8726125 4.97525625 1.27658125 2.2113375 4.46829375 2.21148125 5.745075 0.00025625 0.29116875 -0.50426875 0.4444625 -1.0763 0.4444625 -1.65859375 -0.00208125 -1.831025 -1.4859 -3.31484375 -3.316925 -3.31691875Zm0 5.4276875c-1.62486875 0 -2.6404125 -1.75896875 -1.82798125 -3.16615 0.8124375 -1.40718125 2.843525 -1.40718125 3.6559625 0 0.18525625 0.320875 0.2827875 0.68486875 0.2827875 1.05538125 0 1.16575 -0.945025 2.11076875 -2.11076875 2.11076875Z" stroke-width="0.0625"></path></svg>