<svg xmlns="http://www.w3.org/2000/svg" viewBox="0 0 16 16" fill="#000000" id="Chats-Circle--Streamline-Phosphor" height="16" width="16"><desc>Chats Circle Streamline Icon: https://streamlinehq.com</desc><path d="M15.28431875 12.10568125c1.6678875 -3.45936875 -0.56205625 -7.53284375 -4.374975 -7.99185625C9.20609375 0.15371875 3.85461875 -0.47753125 1.27669375 2.97758125 0.031625 4.6463 -0.184875 6.868 0.71459375 8.7457l-0.50889375 1.72969375c-0.2437 0.8270125 0.4992625 1.60770625 1.337325 1.40524375 0.017975 -0.00434375 0.03583125 -0.009125 0.05356875 -0.01435625l1.7296875 -0.50889375c0.5554 0.26684375 1.15085625 0.44065625 1.76259375 0.51449375 1.2538125 2.93773125 4.70694375 4.233375 7.5837625 2.8454875l1.7296875 0.5089c0.82706875 0.24351875 1.60760625 -0.49960625 1.40496875 -1.337625 -0.00426875 -0.0176375 -0.00895625 -0.0351625 -0.014075 -0.05256875Zm-11.9048375 -1.9081875c-0.0535125 0.000125 -0.10675 0.0076625 -0.1582 0.0224l-1.9417875 0.57259375 0.57189375 -1.9431875c0.040675 -0.1403875 0.02485 -0.29111875 -0.0441 -0.42C0.1811125 5.3880875 2.45696875 1.7269375 5.903825 1.8392375c3.4468625 0.11229375 5.47958125 3.91381875 3.6589 6.8427375 -1.2464625 2.005175 -3.8351875 2.69881875 -5.91724375 1.58551875 -0.08146875 -0.0450875 -0.17289375 -0.06914375 -0.266 -0.07Zm10.76524375 2.0110875 0.5747 1.94389375 -1.9431875 -0.5719c-0.14039375 -0.040675 -0.29111875 -0.02485 -0.42 0.0441 -2.1444375 1.1450625 -4.81075 0.372525 -6.01086875 -1.7415875 3.241625 -0.3383375 5.5091 -3.36475625 4.923075 -6.57086875 2.86333125 0.6749375 4.31005625 3.8795625 2.92248125 6.47356875 -0.06969375 0.12965625 -0.0855375 0.28154375 -0.0441 0.42279375Z" stroke-width="0.0625"></path></svg>