<svg xmlns="http://www.w3.org/2000/svg" viewBox="0 0 16 16" fill="#000000" id="Chat-Circle-Dots--Streamline-Phosphor" height="16" width="16"><desc>Chat Circle Dots Streamline Icon: https://streamlinehq.com</desc><path d="M8.9046625 7.9977125c0 0.69636875 -0.75384375 1.13159375 -1.3569125 0.7834125 -0.603075 -0.3481875 -0.603075 -1.21864375 0 -1.56683125 0.137525 -0.0794 0.29349375 -0.1212 0.4523 -0.12119375 0.4995875 0.000025 0.9046125 0.405025 0.9046125 0.9046125Zm-4.2215125 -0.9046125c-0.69636875 -0.00003125 -1.1315875 0.75379375 -0.78343125 1.35688125 0.34815625 0.6030875 1.21861875 0.603125 1.566825 0.00006875 0.0794125 -0.137525 0.12121875 -0.29353125 0.12121875 -0.4523375 0 -0.4995875 -0.405025 -0.9045875 -0.9046125 -0.9046125Zm6.63380625 0c-0.69636875 -0.00003125 -1.13159375 0.75379375 -0.7834375 1.35688125 0.34815625 0.6030875 1.21861875 0.603125 1.56683125 0.00006875 0.07940625 -0.137525 0.1212125 -0.29353125 0.1212125 -0.4523375 0 -0.4995875 -0.405025 -0.9045875 -0.90460625 -0.9046125Zm4.52304375 0.9046125c0.00129375 5.9169875 -6.30199375 9.70275 -11.52471875 6.92176875l-2.56683125 0.85560625c-0.88080625 0.2937375 -1.7492875 -0.47616875 -1.56326875 -1.3858375 0.00968125 -0.04735625 0.0222 -0.09408125 0.03749375 -0.1399375l0.8556125 -2.566825C-1.75578125 6.35410625 2.2410625 -0.0441 8.2726125 0.1657125c4.22 0.1468 7.56565625 3.60944375 7.5673875 7.832Zm-1.20614375 0c-0.00145 -5.10670625 -5.530525 -8.296825 -9.95233125 -5.74221875 -3.172775 1.833 -4.25855 5.8911875 -2.4249875 9.0636375 0.08645 0.149625 0.10456875 0.3291375 0.04975625 0.4930125L1.36625 14.6315125l2.81936875 -0.94004375c0.06140625 -0.0209375 0.1258375 -0.03163125 0.19071875 -0.03165625 0.10591875 0.0001875 0.20991875 0.02826875 0.3015375 0.0814125 4.4201875 2.5574125 9.9512875 -0.62919375 9.955975 -5.73589375 0.00000625 -0.00254375 0.00000625 -0.00508125 0.00000625 -0.00761875Z" stroke-width="0.0625"></path></svg>