<svg xmlns="http://www.w3.org/2000/svg" viewBox="0 0 16 16" fill="#000000" id="Chats--Streamline-Phosphor" height="16" width="16"><desc>Chats Streamline Icon: https://streamlinehq.com</desc><path d="M14.63384375 4.08h-2.41230625V1.66769375c0 -0.6661625 -0.53999375 -1.2061875 -1.20615 -1.20615625H1.36615625C0.69999375 0.46150625 0.16 1.00153125 0.16 1.66769375v9.64923125c0.00145 0.46424375 0.5049125 0.75283125 0.9062375 0.51945 0.02580625 -0.01500625 0.0504625 -0.03190625 0.0737625 -0.0505625l2.6384625 -2.12735V11.92c0 0.66611875 0.54003125 1.206125 1.20615 1.20615625h7.05525l2.8201375 2.27811875c0.1067125 0.08631875 0.239675 0.13365 0.376925 0.1341875 0.33305625 -0.00001875 0.603075 -0.27001875 0.603075 -0.603075V5.28615625c0 -0.66611875 -0.5400375 -1.206125 -1.20615625 -1.20615625ZM3.3676125 8.435725l-2.00145625 1.61850625V1.66769375h9.649225v6.63384375H3.7468c-0.138025 0.00001875 -0.27186875 0.04738125 -0.3791875 0.1341875Zm11.26623125 5.23696875 -2.00145625 -1.61850625c-0.1067125 -0.08631875 -0.239675 -0.13365625 -0.376925 -0.1341875H4.9846125v-2.41230625h6.030775c0.66611875 -0.00003125 1.20615 -0.5400375 1.20615 -1.20615625V5.28615625h2.41230625Z" stroke-width="0.0625"></path></svg>