<svg xmlns="http://www.w3.org/2000/svg" viewBox="0 0 16 16" fill="#000000" id="Chat-Teardrop-Dots--Streamline-Phosphor" height="16" width="16"><desc>Chat Teardrop Dots Streamline Icon: https://streamlinehq.com</desc><path d="M8 0.16C3.67205625 0.16475 0.16475 3.67205625 0.16 8v6.5856c0 0.69280625 0.56159375 1.25443125 1.2544 1.2544H8c6.0352375 0 9.80725625 -6.53333125 6.7896375 -11.76C13.38915625 1.65429375 10.8009625 0.16 8 0.16Zm0 14.4256H1.4144V8c0 -5.0696 5.488 -8.23809375 9.8784 -5.7033 4.3904 2.5348 4.3904 8.8718 0 11.4066 -1.00105 0.57795625 -2.1368875 0.88225 -3.2928 0.8823Zm0.9408 -6.272c0 0.72423125 -0.784 1.17686875 -1.4112 0.81475625 -0.6272 -0.3621125 -0.6272 -1.2674 0 -1.6295125 0.14303125 -0.08258125 0.30524375 -0.12605 0.4704 -0.12604375 0.519575 0.000025 0.9408 0.421225 0.9408 0.9408Zm-3.4496 0c0 0.72423125 -0.784 1.17686875 -1.4112 0.81475625 -0.6272 -0.3621125 -0.6272 -1.2674 0 -1.6295125 0.14300625 -0.08256875 0.30526875 -0.1260375 0.4704 -0.12604375 0.51960625 -0.000025 0.9408 0.42119375 0.9408 0.9408Zm6.8992 0c0 0.72423125 -0.784 1.17686875 -1.4112 0.81475625 -0.6272 -0.3621125 -0.6272 -1.2674 0 -1.6295125 0.14303125 -0.08258125 0.30524375 -0.12605 0.4704 -0.12604375 0.519575 0.000025 0.9408 0.421225 0.9408 0.9408Z" stroke-width="0.0625"></path></svg>