<svg xmlns="http://www.w3.org/2000/svg" viewBox="0 0 16 16" fill="#000000" id="Chat-Text--Streamline-Phosphor" height="16" width="16"><desc>Chat Text Streamline Icon: https://streamlinehq.com</desc><path d="M14.63385 0.7630875H1.366175c-0.66611875 0.00003125 -1.20615625 0.54003125 -1.20615625 1.20615v12.061525c-0.00278125 0.469575 0.26975 0.89725 0.69655625 1.093075 0.159675 0.0741375 0.33355 0.11271875 0.5096 0.113075 0.28314375 -0.000675 0.5569 -0.10163125 0.7726875 -0.28495l0.0067875 -0.00528125 2.46205625 -2.122075h10.02614375c0.6661375 0 1.20615 -0.5400125 1.20615 -1.20615V1.9692375c0 -0.6661375 -0.5400125 -1.20615 -1.20615 -1.20615ZM1.366175 14.0307625Zm13.267675 -2.41230625H4.38155625c-0.14480625 0.000075 -0.28475625 0.05225625 -0.3942625 0.147l-2.62111875 2.26530625V1.9692375h13.267675ZM4.98463125 5.58769375c0 -0.33306875 0.27000625 -0.603075 0.603075 -0.603075h4.82460625c0.46425 0.00001875 0.7544125 0.5026 0.52226875 0.9046375 -0.10773125 0.18658125 -0.30681875 0.30151875 -0.52226875 0.30151875H5.58770625c-0.33306875 0 -0.603075 -0.2700125 -0.603075 -0.60308125Zm0 2.41230625c0 -0.33306875 0.27000625 -0.603075 0.603075 -0.603075h4.82460625c0.46425 0 0.75440625 0.5025625 0.52228125 0.9046125 -0.10773125 0.1866 -0.3068125 0.30155 -0.52228125 0.3015375H5.58770625c-0.33308125 0.00001875 -0.603075 -0.26999375 -0.603075 -0.603075Z" stroke-width="0.0625"></path></svg>