<svg xmlns="http://www.w3.org/2000/svg" viewBox="0 0 16 16" fill="#000000" id="Clock-Clockwise--Streamline-Phosphor" height="16" width="16"><desc>Clock Clockwise Streamline Icon: https://streamlinehq.com</desc><path d="M8.313825 4.2331v3.40795l2.831725 1.698875c0.41400625 0.24864375 0.40359375 0.85221875 -0.01874375 1.0864375 -0.19600625 0.1087 -0.4351125 0.104575 -0.62725 -0.010825l-3.13590625 -1.8815375c-0.18879375 -0.11343125 -0.30425 -0.31756875 -0.3041875 -0.5378125V4.2331c0.0004875 -0.4828 0.5234375 -0.78403125 0.94131875 -0.5422125 0.19355 0.11200625 0.312825 0.31859375 0.31304375 0.5422125ZM15.21281875 2.3515625c-0.34638125 0 -0.62718125 0.28079375 -0.62718125 0.62718125v1.41115625c-0.497825 -0.57700625 -1.00584375 -1.13285 -1.5773625 -1.711425C8.911775 -1.418475 1.916375 0.455525 0.4165625 6.05168125c-1.49981875 5.59615 3.6208125 10.71734375 9.21713125 9.21814375 1.20485625 -0.32276875 2.31059375 -0.93993125 3.2177875 -1.79599375 0.35124375 -0.331925 0.21144375 -0.9196125 -0.25163125 -1.05783125 -0.21491875 -0.06414375 -0.44773125 -0.0087625 -0.61074375 0.14528125 -3.5136125 3.31126875 -9.294175 1.57720625 -10.40500625 -3.12130625C0.47326875 4.74145625 4.8652875 0.602375 9.4897375 1.989625c0.9927 0.29779375 1.89613125 0.83694375 2.6295125 1.56925625 0.63815625 0.646 1.19713125 1.268475 1.76080625 1.92858125h-1.80314375c-0.48280625 0.0004875 -0.78403125 0.5234375 -0.5422125 0.94131875 0.112 0.19355 0.31859375 0.312825 0.5422125 0.31304375h3.13590625c0.346375 -0.0000125 0.62718125 -0.28080625 0.62718125 -0.62718125V2.97874375c0 -0.3463875 -0.2808 -0.62718125 -0.62718125 -0.62718125Z" stroke-width="0.0625"></path></svg>