<svg xmlns="http://www.w3.org/2000/svg" viewBox="0 0 16 16" fill="#000000" id="Clock--Streamline-Phosphor" height="16" width="16"><desc>Clock Streamline Icon: https://streamlinehq.com</desc><path d="M8 0.16c-6.0352375 0 -9.80725625 6.53333125 -6.7896375 11.76 3.0176125 5.22666875 10.56165625 5.22666875 13.579275 0C15.47774375 10.72816875 15.84 9.37620625 15.84 8 15.83543125 3.67198125 12.32801875 0.164575 8 0.16Zm0 14.47384375c-5.1067375 0.00023125 -8.2984 -5.52783125 -5.745225 -9.9505125 2.55316875 -4.422675 8.9365875 -4.4229625 11.49015625 -0.0005125 0.5823375 1.00853125 0.8889125 2.1526 0.8889125 3.31718125 -0.00415 3.66205 -2.97179375 6.6296875 -6.63384375 6.63384375ZM12.8246125 8c0 0.3330625 -0.2700125 0.6030625 -0.603075 0.603075H8c-0.33308125 0.00001875 -0.603075 -0.26999375 -0.603075 -0.603075V3.7784625c0 -0.46425 0.5025625 -0.75440625 0.9046125 -0.52228125 0.18659375 0.10773125 0.3015375 0.30681875 0.3015375 0.52228125v3.6184625h3.6184625c0.3330625 0.0000125 0.603075 0.2700125 0.603075 0.603075Z" stroke-width="0.0625"></path></svg>