<svg xmlns="http://www.w3.org/2000/svg" viewBox="0 0 16 16" fill="#000000" id="Compass--Streamline-Phosphor" height="16" width="16"><desc>Compass Streamline Icon: https://streamlinehq.com</desc><path d="M8 0.16c-6.0352375 0 -9.80725625 6.53333125 -6.7896375 11.76 3.0176125 5.22666875 10.56165625 5.22666875 13.579275 0C15.47774375 10.72816875 15.84 9.37620625 15.84 8 15.83543125 3.67198125 12.32801875 0.164575 8 0.16Zm0 14.47384375c-5.1067375 0.00023125 -8.2984 -5.52783125 -5.745225 -9.9505125 2.55316875 -4.422675 8.9365875 -4.4229625 11.49015625 -0.0005125 0.5823375 1.00853125 0.8889125 2.1526 0.8889125 3.31718125 -0.00415 3.66205 -2.97179375 6.6296875 -6.63384375 6.63384375Zm3.34858125 -10.79205625 -4.8246125 2.41230625c-0.11664375 0.05859375 -0.2112875 0.15323125 -0.269875 0.269875l-2.4123125 4.82461875c-0.20074375 0.4011625 0.09116875 0.873275 0.53975625 0.87295 0.093625 -0.0001375 0.1859625 -0.02180625 0.269875 -0.063325l4.82461875 -2.41230625c0.11664375 -0.05859375 0.21128125 -0.15323125 0.269875 -0.269875l2.41230625 -4.82461875c0.20841875 -0.41483125 -0.11039375 -0.899725 -0.57385625 -0.8728 -0.082075 0.00476875 -0.16230625 0.0262625 -0.23576875 0.063175Zm-2.5947375 4.91205625 -3.023675 1.5159875 1.5159875 -3.023675 3.0266875 -1.512975Z" stroke-width="0.0625"></path></svg>