<svg xmlns="http://www.w3.org/2000/svg" viewBox="0 0 16 16" fill="#000000" id="Floppy-Disk--Streamline-Phosphor" height="16" width="16"><desc>Floppy Disk Streamline Icon: https://streamlinehq.com</desc><path d="M15.456975 3.426675 12.57333125 0.543025c-0.24420625 -0.2461625 -0.5769125 -0.384125 -0.92365 -0.38301875H1.46666875C0.7450125 0.16000625 0.16 0.74501875 0.16 1.466675v13.0666625c0 0.72166875 0.58499375 1.30669375 1.30666875 1.3066625h13.06665625c0.72163125 -0.00003125 1.30666875 -0.5850375 1.30666875 -1.3066625V4.35031875c0.00110625 -0.3467375 -0.13685625 -0.67944375 -0.38301875 -0.92364375Zm-4.1903125 11.10665625H4.73333125V9.96h6.53333125Zm3.2666625 0h-1.96V9.96c0 -0.721625 -0.5850375 -1.30663125 -1.3066625 -1.3066625H4.73333125c-0.721675 -0.00003125 -1.30666875 0.5849875 -1.30666875 1.3066625v4.57333125H1.46666875V1.466675h10.1830125l2.88364375 2.88364375ZM10.61333125 3.426675c0 0.3608125 -0.29251875 0.6533125 -0.6533375 0.65333125H5.3866625c-0.50293125 -0.000025 -0.817275 -0.54448125 -0.5657875 -0.980025 0.1167125 -0.20213125 0.3323875 -0.32664375 0.5657875 -0.32664375h4.57333125c0.36081875 0.00001875 0.6533375 0.29251875 0.6533375 0.6533375Z" stroke-width="0.0625"></path></svg>