<svg xmlns="http://www.w3.org/2000/svg" viewBox="0 0 16 16" fill="#000000" id="Folder-Plus--Streamline-Phosphor" height="16" width="16"><desc>Folder Plus Streamline Icon: https://streamlinehq.com</desc><path d="M14.63384375 3.7784625H8.249525l-2.05875625 -2.05875c-0.22541875 -0.227225 -0.53253125 -0.35458125 -0.8526 -0.35355625H1.36615625C0.69999375 1.366125 0.16 1.90615 0.16 2.5723125v10.90211875c0.00083125 0.6399875 0.51943125 1.1585875 1.1594125 1.15941875H14.7009375c0.62874375 -0.00083125 1.13823125 -0.51031875 1.1390625 -1.1390625V4.98461875c0 -0.66611875 -0.5400375 -1.206125 -1.20615625 -1.20615625ZM5.33816875 2.5723125l1.20615625 1.20615H1.36615625V2.5723125Zm9.295675 10.85538125H1.36615625V4.98461875h13.2676875ZM8 6.79385c0.3330625 0.0000125 0.603075 0.27001875 0.603075 0.603075v1.20615625h1.20615625c0.46425 0 0.75440625 0.5025625 0.52228125 0.9046125 -0.107725 0.1865875 -0.30683125 0.30153125 -0.52228125 0.3015375h-1.20615625v1.20615625c0 0.46425 -0.5025625 0.75440625 -0.9046125 0.52228125 -0.18659375 -0.10773125 -0.3015375 -0.306825 -0.3015375 -0.52228125v-1.20615625H6.19076875c-0.46425 -0.00001875 -0.75440625 -0.50259375 -0.52226875 -0.9046375 0.1077375 -0.18658125 0.30681875 -0.3015125 0.52226875 -0.3015125h1.20615625v-1.20615625c0 -0.33308125 0.26999375 -0.60309375 0.603075 -0.603075Z" stroke-width="0.0625"></path></svg>