<svg xmlns="http://www.w3.org/2000/svg" viewBox="0 0 16 16" fill="#000000" id="Footprints--Streamline-Phosphor" height="16" width="16"><desc>Footprints Streamline Icon: https://streamlinehq.com</desc><path d="M13.603575 11.9186875H9.6798125c-0.30924375 0 -0.5599375 0.25069375 -0.5599375 0.5599375v0.83990625c0 1.941025 2.101225 3.15416875 3.7822 2.18365625 0.78015 -0.45041875 1.2607375 -1.282825 1.2607375 -2.18365625V12.478625c0 -0.30896875 -0.25026875 -0.55955 -0.5592375 -0.5599375Zm-0.5599375 1.39984375c0 1.0776 -1.1665375 1.7511 -2.09976875 1.2123 -0.4331125 -0.25005625 -0.69991875 -0.71218125 -0.69991875 -1.2123v-0.27996875h2.7996875ZM6.3201875 10.238875H2.400625c-0.30924375 0 -0.5599375 0.25069375 -0.5599375 0.5599375v0.83990625c0 1.93968125 2.0997625 3.15198125 3.779575 2.1821375 0.77960625 -0.4501 1.2598625 -1.28193125 1.2598625 -2.1821375V10.7988125c0 -0.30924375 -0.25069375 -0.5599375 -0.5599375 -0.5599375Zm-0.5599375 1.39984375c0 1.0776 -1.1665375 1.7511 -2.09976875 1.2123 -0.4331125 -0.25005625 -0.69991875 -0.71218125 -0.69991875 -1.2123V11.35875h2.7996875ZM4.36040625 0.16c-0.8147125 0 -1.60491875 0.72161875 -2.22575 2.029775 -0.97499375 2.05636875 -1.29905625 5.10943125 0.02029375 6.71925 0.1065375 0.13003125 0.26585 0.20531875 0.43395625 0.205075h3.5381c0.1681 0.00024375 0.32741875 -0.07504375 0.43395625 -0.205075 1.31935 -1.609825 0.9952875 -4.66498125 0.02029375 -6.71925C5.959725 0.88161875 5.1702125 0.16 4.36040625 0.16Zm1.4803375 7.839125H2.87516875c-0.79790625 -1.26685625 -0.50464375 -3.6885875 0.272275 -5.32710625C3.60029375 1.715225 4.0923375 1.279875 4.36040625 1.279875s0.7573125 0.43535 1.2108625 1.39214375c0.77411875 1.63851875 1.06738125 4.06025 0.269475 5.32710625Zm4.03225 2.7996875h3.5381c0.1681 0.00024375 0.32741875 -0.07504375 0.43395625 -0.205075 1.31935 -1.609825 0.9952875 -4.66498125 0.02029375 -6.71925 -0.62083125 -1.31305625 -1.41104375 -2.034675 -2.22575 -2.034675s-1.60211875 0.72161875 -2.22365 2.029775c-0.97499375 2.05636875 -1.29905625 5.10943125 0.02029375 6.71925 0.1065125 0.13221875 0.26696875 0.2093625 0.43675 0.209975Zm0.5599375 -6.44698125c0.45214375 -0.95679375 0.94419375 -1.39214375 1.2066625 -1.39214375s0.7573125 0.43535 1.2101625 1.39214375c0.7769125 1.63851875 1.07018125 4.05955 0.27296875 5.32710625h-2.96346875c-0.79790625 -1.26685625 -0.50464375 -3.6885875 0.27226875 -5.32710625Z" stroke-width="0.0625"></path></svg>