<svg xmlns="http://www.w3.org/2000/svg" viewBox="0 0 16 16" fill="#000000" id="Funnel-X--Streamline-Phosphor" height="16" width="16"><desc>Funnel X Streamline Icon: https://streamlinehq.com</desc><path d="M14.42564375 3.152925c0.5798375 -0.6381125 0.25145 -1.664625 -0.5910875 -1.8477125 -0.07765 -0.016875 -0.156875 -0.0254375 -0.2363375 -0.02555H1.27785C0.41565 1.2813625 -0.1213875 2.2157875 0.31118125 2.961625c0.03975 0.0685375 0.0866625 0.1326625 0.13994375 0.1913l0.0056 0.0063 4.74124375 5.06255v5.3782625c-0.0002 0.8622 0.93303125 1.40129375 1.679825 0.97036875 0.020775 -0.0119875 0.0411625 -0.02464375 0.061125 -0.0379375l2.24006875 -1.49385c0.31188125 -0.20774375 0.4992 -0.55769375 0.4991125 -0.932425v-3.88441875l4.74124375 -5.06255ZM1.27785 2.3997Zm7.433525 5.22145625c-0.096975 0.102425 -0.15171875 0.237675 -0.15330625 0.3787125v4.106325l-2.24006875 1.49384375v-5.60016875c-0.00013125 -0.1419625 -0.05418125 -0.278575 -0.15120625 -0.3822125L1.27785 2.3997h12.32036875Zm6.96450625 5.58686875c0.30500625 0.30500625 0.16545625 0.82580625 -0.2511875 0.93745 -0.1933625 0.0518125 -0.39968125 -0.003475 -0.54123125 -0.145025l-1.28524375 -1.2880375 -1.2838375 1.2845375c-0.305 0.3047375 -0.8255125 0.16501875 -0.93691875 -0.25149375 -0.05170625 -0.1933 0.00364375 -0.3995 0.14519375 -0.54093125l1.2838375 -1.2845375 -1.2838375 -1.2845375c-0.296925 -0.31254375 -0.144175 -0.8293125 0.2749625 -0.93019375 0.1845875 -0.044425 0.37911875 0.0077 0.5167625 0.13846875l1.2838375 1.2845375 1.28384375 -1.2838375c0.30473125 -0.30500625 0.82536875 -0.16575 0.93714375 0.2506625 0.051875 0.19325625 -0.00329375 0.39950625 -0.144725 0.5410625l-1.2845375 1.2838375Z" stroke-width="0.0625"></path></svg>