<svg xmlns="http://www.w3.org/2000/svg" viewBox="0 0 16 16" fill="#000000" id="Gear--Streamline-Phosphor" height="16" width="16"><desc>Gear Streamline Icon: https://streamlinehq.com</desc><path d="M7.998875 4.4031c-2.768025 0 -4.49804375 2.99648125 -3.11403125 5.3936625 1.3840125 2.3971875 4.84405 2.3971875 6.2280625 0 0.3156 -0.546625 0.48174375 -1.16669375 0.48174375 -1.7978875 -0.0020625 -1.98503125 -1.6107375 -3.59370625 -3.595775 -3.595775Zm0 5.9929625c-1.84535 0 -2.99869375 -1.99765625 -2.07601875 -3.595775 0.922675 -1.598125 3.2293625 -1.598125 4.15204375 0 0.21039375 0.3644125 0.32115625 0.77779375 0.32115625 1.1985875 0 1.32393125 -1.07325 2.3971875 -2.39718125 2.3971875Zm6.59225625 -2.235375q0.00449375 -0.1618125 0 -0.32361875l1.1176875 -1.3963625c0.11885 -0.14868125 0.16 -0.34498125 0.11086875 -0.528875 -0.183225 -0.68874375 -0.4573125 -1.35003125 -0.81504375 -1.96644375 -0.094975 -0.1635625 -0.2615875 -0.27269375 -0.44946875 -0.2944l-1.7769125 -0.19776875q-0.110875 -0.1168625 -0.2247375 -0.2247375l-0.20975625 -1.78140625c-0.021875 -0.18803125 -0.1313 -0.35466875 -0.29515 -0.449475 -0.61665 -0.35706875 -1.27788125 -0.63088125 -1.9664375 -0.8142875 -0.18401875 -0.048925 -0.38033125 -0.00749375 -0.52888125 0.11161875L8.1606875 1.406625h-0.32361875L6.44070625 0.29118125c-0.14868125 -0.11885 -0.34498125 -0.16 -0.52888125 -0.11086875 -0.688625 0.18355625 -1.34986875 0.457625 -1.9664375 0.81504375 -0.1635625 0.094975 -0.27269375 0.2615875 -0.2944 0.44946875l-0.19776875 1.7799125q-0.1168625 0.11161875 -0.2247375 0.22473125l-1.78140625 0.2045125c-0.18803125 0.021875 -0.35466875 0.13130625 -0.449475 0.29515625 -0.35706875 0.61664375 -0.63088125 1.277875 -0.8142875 1.9664375 -0.048925 0.1840125 -0.00749375 0.380325 0.11161875 0.528875l1.11169375 1.39261875v0.32361875L0.29118125 9.55704375c-0.11885 0.14868125 -0.16 0.3449875 -0.11086875 0.52888125 0.183225 0.6887375 0.4573125 1.350025 0.81504375 1.9664375 0.094975 0.1635625 0.2615875 0.27269375 0.44946875 0.29440625l1.7769125 0.19776875q0.11161875 0.1168625 0.2247375 0.22473125l0.20750625 1.78140625c0.021875 0.18803125 0.13130625 0.354675 0.29515625 0.449475 0.61664375 0.35706875 1.277875 0.63088125 1.9664375 0.81429375 0.1840125 0.048925 0.380325 0.00749375 0.528875 -0.11161875l1.39261875 -1.11169375q0.16180625 0.00449375 0.32361875 0l1.39635625 1.1176875c0.14868125 0.11885 0.3449875 0.16 0.52888125 0.11086875 0.6887375 -0.183225 1.350025 -0.4573125 1.9664375 -0.81504375 0.1635625 -0.094975 0.27269375 -0.26158125 0.29440625 -0.44946875l0.19776875 -1.7769125q0.1168625 -0.11086875 0.22473125 -0.2247375l1.78140625 -0.20975625c0.18803125 -0.021875 0.354675 -0.1313 0.449475 -0.29515 0.35706875 -0.61665 0.63088125 -1.27788125 0.81429375 -1.9664375 0.048925 -0.18401875 0.00749375 -0.38033125 -0.11161875 -0.52888125Zm-1.20608125 -0.48693125c0.01273125 0.2165625 0.01273125 0.43368125 0 0.6502375 -0.008925 0.1482625 0.037525 0.2945625 0.13034375 0.41051875l1.063 1.3281875c-0.121975 0.38764375 -0.27815625 0.7636875 -0.4667 1.12368125l-1.6930125 0.191775c-0.1474375 0.0163625 -0.2835625 0.08683125 -0.38205 0.19776875 -0.1442 0.162175 -0.29778125 0.31575625 -0.4599625 0.45995625 -0.11093125 0.0984875 -0.1814 0.2346125 -0.1977625 0.38205l-0.18803125 1.6915125c-0.35995625 0.1886375 -0.736 0.34481875 -1.12368125 0.46670625l-1.3289375 -1.063c-0.10634375 -0.08496875 -0.2384375 -0.13120625 -0.37455625 -0.1311h-0.0359625c-0.21655625 0.0127375 -0.433675 0.0127375 -0.65023125 0 -0.14826875 -0.008925 -0.2945625 0.037525 -0.41051875 0.13035l-1.3319375 1.06375c-0.38764375 -0.121975 -0.76368125 -0.27815625 -1.12368125 -0.46670625l-0.19176875 -1.6907625c-0.01636875 -0.1474375 -0.0868375 -0.2835625 -0.19776875 -0.38205 -0.16218125 -0.1442 -0.3157625 -0.29778125 -0.4599625 -0.45995625 -0.09848125 -0.1109375 -0.2346125 -0.18140625 -0.38205 -0.19776875l-1.6915125 -0.18878125c-0.18863125 -0.35995 -0.34481875 -0.736 -0.4667 -1.123675l1.063 -1.32894375c0.09281875 -0.11595625 0.13926875 -0.26225 0.13034375 -0.4105125 -0.01273125 -0.2165625 -0.01273125 -0.43368125 0 -0.6502375 0.008925 -0.1482625 -0.037525 -0.2945625 -0.13034375 -0.41051875l-1.063 -1.3311875c0.121975 -0.38764375 0.27815625 -0.76368125 0.4667 -1.123675l1.6907625 -0.191775c0.1474375 -0.01636875 0.28356875 -0.0868375 0.38205 -0.19776875 0.1442 -0.16218125 0.29778125 -0.3157625 0.4599625 -0.4599625 0.111375 -0.09855 0.18213125 -0.2349875 0.19851875 -0.3828l0.188025 -1.6907625c0.35995625 -0.18863125 0.736 -0.34481875 1.12368125 -0.4667l1.3289375 1.063c0.11595625 0.09281875 0.26225625 0.13926875 0.41051875 0.13034375 0.21655625 -0.01273125 0.433675 -0.01273125 0.6502375 0 0.1482625 0.008925 0.29455625 -0.037525 0.4105125 -0.13034375l1.3311875 -1.063c0.38764375 0.121975 0.76368125 0.27815625 1.12368125 0.4667l0.191775 1.6907625c0.0163625 0.1474375 0.08683125 0.28356875 0.19776875 0.38205 0.162175 0.1442 0.31575625 0.29778125 0.45995625 0.4599625 0.0984875 0.11093125 0.2346125 0.1814 0.38205 0.19776875l1.6915125 0.188025c0.1886375 0.35995625 0.34481875 0.736 0.46670625 1.12368125l-1.063 1.3289375c-0.09371875 0.1169375 -0.14021875 0.2647375 -0.13035 0.4142625Z" stroke-width="0.0625"></path></svg>