<svg xmlns="http://www.w3.org/2000/svg" viewBox="0 0 16 16" fill="#000000" id="Hand-Palm--Streamline-Phosphor" height="16" width="16"><desc>Hand Palm Streamline Icon: https://streamlinehq.com</desc><path d="M12.2003375 5.19915c-0.29069375 -0.00040625 -0.57776875 0.064425 -0.84006875 0.18971875v-2.149875c-0.00038125 -1.48596875 -1.589525 -2.43115625 -2.89543125 -1.72213125C8.00028125 0.08121875 6.1558125 -0.31315625 5.14479375 0.806975c-0.324775 0.359825 -0.50470625 0.82721875 -0.5050625 1.31193125v0.4697375c-0.2623 -0.12529375 -0.549375 -0.190125 -0.8400625 -0.1897125 -1.0826 -0.00005 -1.96015625 0.87755625 -1.96015625 1.96015625v5.320425c0 4.74234375 5.1337375 7.7063125 9.24073125 5.3351375 1.9060625 -1.1004625 3.08025 -3.13420625 3.08025 -5.3351375v-2.52020625c0 -1.082525 -0.87763125 -1.96010625 -1.96015625 -1.96015625Zm0.8400625 4.4803625c0 3.8801 -4.20033125 6.3051625 -7.5606 4.3651125 -1.55950625 -0.90038125 -2.5202 -2.56435625 -2.5202 -4.3651125V4.3590875c0 -0.6466875 0.70005625 -1.0508625 1.2601 -0.72751875 0.25991875 0.1500625 0.42003125 0.4273875 0.42003125 0.72751875v3.08024375c0 0.431125 0.46670625 0.700575 0.84006875 0.4850125 0.173275 -0.10004375 0.28001875 -0.284925 0.28001875 -0.4850125V2.11890625c0 -0.64668125 0.70005625 -1.0508625 1.2601 -0.72751875 0.25991875 0.1500625 0.4200375 0.42739375 0.4200375 0.72751875v4.76038125c0 0.431125 0.4667 0.700575 0.84006875 0.4850125 0.173275 -0.10004375 0.28001875 -0.28493125 0.28001875 -0.4850125V3.23899375c0 -0.64668125 0.70005625 -1.05085625 1.2601 -0.72751875 0.25991875 0.1500625 0.4200375 0.42739375 0.4200375 0.72751875v4.8072875c-1.6156 0.27541875 -2.79796875 1.6744625 -2.800225 3.3133625 0 0.431125 0.4667 0.700575 0.84006875 0.4850125 0.173275 -0.10004375 0.28001875 -0.28493125 0.28001875 -0.4850125 0 -1.23721875 1.0029625 -2.24018125 2.24018125 -2.24018125 0.3093 0 0.56004375 -0.2507375 0.56004375 -0.56004375V7.1593125c0 -0.6466875 0.70005625 -1.0508625 1.2601 -0.727525 0.25991875 0.15006875 0.42003125 0.42739375 0.42003125 0.727525Z" stroke-width="0.0625"></path></svg>