<svg xmlns="http://www.w3.org/2000/svg" viewBox="0 0 16 16" fill="#000000" id="Heart-Straight--Streamline-Phosphor" height="16" width="16"><desc>Heart Straight Streamline Icon: https://streamlinehq.com</desc><path d="M14.65181875 2.47135625c-1.583725 -1.5797625 -4.14628125 -1.58289375 -5.73385625 -0.007l-0.91551875 0.85041875 -0.9162125 -0.85321875C4.87334375 0.2548625 1.10146875 1.27120625 0.2968625 4.29096875c-0.373425 1.40148125 0.02920625 2.89571875 1.0562125 3.91984375l6.25390625 6.34560625c0.21935 0.22273125 0.57858125 0.22273125 0.797925 0l6.2469125 -6.34560625c1.58424375 -1.58518125 1.58424375 -4.154275 0 -5.73945625Zm-0.794425 4.95273125 -5.85495 5.93824375 -5.85844375 -5.94384375C0.54373125 5.818225 1.27590625 3.085725 3.46190625 2.4999875c1.014525 -0.27184375 2.0970125 0.01820625 2.8397 0.76089375l0.014 0.014 1.305375 1.2143875c0.21496875 0.20005 0.5479625 0.20005 0.762925 0l1.30538125 -1.2143875 0.014 -0.014c1.6013375 -1.5991875 4.33335 -0.865175 4.9176125 1.32121875 0.27115625 1.0147125 -0.01961875 2.09700625 -0.76280625 2.8391875Z" stroke-width="0.0625"></path></svg>