<svg xmlns="http://www.w3.org/2000/svg" viewBox="0 0 16 16" fill="#000000" id="House--Streamline-Phosphor" height="16" width="16"><desc>House Streamline Icon: https://streamlinehq.com</desc><path d="M15.1586125 6.79903125 8.88669375 0.5271125c-0.4898 -0.48948125 -1.2835875 -0.48948125 -1.7733875 0L0.8413875 6.79903125c-0.236425 0.23466875 -0.368875 0.55435625 -0.3676875 0.887475v7.5263c0 0.3463875 0.2808 0.62719375 0.6271875 0.62719375h5.0175375c0.3463875 0 0.62719375 -0.28080625 0.62719375 -0.62719375v-4.39034375h2.5087625v4.39034375c0 0.3463875 0.28080625 0.62719375 0.62719375 0.62719375h5.0175375c0.3463875 0 0.6271875 -0.28080625 0.6271875 -0.62719375V7.68650625c0.0011875 -0.33311875 -0.1312625 -0.65280625 -0.3676875 -0.887475Zm-0.88669375 7.7865875h-3.76315v-4.39034375c0 -0.34638125 -0.2808125 -0.62718125 -0.62719375 -0.62719375H6.118425c-0.3464 -0.0000125 -0.62719375 0.28079375 -0.62719375 0.62719375v4.39034375H1.72808125V7.68650625L8 1.4145875l6.27191875 6.27191875Z" stroke-width="0.0625"></path></svg>