<svg xmlns="http://www.w3.org/2000/svg" viewBox="0 0 16 16" fill="#000000" id="Images--Streamline-Phosphor" height="16" width="16"><desc>Images Streamline Icon: https://streamlinehq.com</desc><path d="M14.63384375 1.36615625H3.7784625c-0.6661625 -0.00003125 -1.20615625 0.5399875 -1.20615625 1.20615v1.20615625H1.36615625C0.69999375 3.77843125 0.16 4.31845625 0.16 4.9846125v8.44308125c0 0.66615625 0.53999375 1.20618125 1.20615625 1.20615h10.85538125c0.66611875 -0.000025 1.20615625 -0.54003125 1.20615625 -1.20615v-1.20615625h1.20615c0.66611875 -0.00003125 1.20615625 -0.54003125 1.20615625 -1.20615625V2.57230625c0 -0.6661375 -0.5400125 -1.20615 -1.20615625 -1.20615ZM3.7784625 2.57230625h10.85538125v4.7303875l-0.75911875 -0.75836875c-0.47105625 -0.4711625 -1.2349 -0.4711625 -1.70595625 0l-1.50769375 1.5076875 -3.31691875 -3.31691875c-0.47096875 -0.4706625 -1.23423125 -0.4706625 -1.7052 0l-1.86049375 1.86049375Zm8.443075 10.8553875H1.36615625V4.9846125h1.20615v6.030775c0 0.6661375 0.5400125 1.20615 1.20615625 1.20615h8.443075Zm2.41230625 -2.41230625H3.7784625v-2.71385l2.71384375 -2.71384375 3.7436 3.7436c0.2354875 0.23533125 0.61711875 0.23533125 0.8526 0l1.93436875 -1.93436875 1.61096875 1.61171875v2.00674375Zm-4.2215375 -6.3323125c0 -0.69636875 0.75385 -1.13160625 1.356925 -0.78341875 0.603075 0.3481875 0.603075 1.21865625 0 1.56684375 -0.13750625 0.0793875 -0.29353125 0.1211875 -0.45230625 0.12119375 -0.499625 0.00001875 -0.90461875 -0.40499375 -0.90461875 -0.90461875Z" stroke-width="0.0625"></path></svg>