<svg xmlns="http://www.w3.org/2000/svg" viewBox="0 0 16 16" fill="#000000" id="List-Heart--Streamline-Phosphor" height="16" width="16"><desc>List Heart Streamline Icon: https://streamlinehq.com</desc><path d="M0.16 3.06349375c0 -0.32074375 0.25999375 -0.58075625 0.58074375 -0.5807375h12.77629375c0.44705625 0.00001875 0.72646875 0.48398125 0.502925 0.87113125 -0.10374375 0.17966875 -0.29545625 0.29035 -0.502925 0.29035H0.74074375c-0.3207375 0 -0.58074375 -0.26000625 -0.58074375 -0.58074375Zm0.58074375 5.22666875h4.645925c0.44705 0 0.7264625 -0.48395 0.50293125 -0.8711125 -0.10373125 -0.179675 -0.2954625 -0.2903625 -0.50293125 -0.29036875H0.74074375c-0.44705625 0.00001875 -0.72646875 0.48398125 -0.502925 0.87113125 0.10374375 0.17966875 0.29545 0.29035 0.502925 0.29035Zm5.80740625 3.48444375H0.74074375c-0.44705625 0 -0.72646875 0.48395 -0.5029375 0.8711125 0.10373125 0.179675 0.2954625 0.2903625 0.5029375 0.29036875h5.80740625c0.44705 -0.00001875 0.72646875 -0.48398125 0.50291875 -0.87113125 -0.1037375 -0.17966875 -0.29545 -0.29035 -0.50291875 -0.29035ZM15.84 8.8709c0 2.65108125 -3.64995625 4.50655 -3.80530625 4.58495 -0.16358125 0.08185625 -0.356175 0.08185625 -0.5197625 0 -0.15534375 -0.0784 -3.8053 -1.9338625 -3.8053 -4.58495 0.00145 -1.7882125 1.9381625 -2.904275 3.486075 -2.0089125 0.21740625 0.12575625 0.41298125 0.2859375 0.57910625 0.47430625 1.18279375 -1.3411625 3.37389375 -0.898975 3.94398125 0.79593125 0.08006875 0.23805625 0.121 0.48751875 0.12120625 0.738675Zm-1.16148125 0c0 -0.89410625 -0.9679 -1.452925 -1.742225 -1.00586875 -0.3593625 0.207475 -0.5807375 0.5909125 -0.5807375 1.00586875 0 0.44705625 -0.48395 0.72646875 -0.8711125 0.5029375 -0.17968125 -0.1037375 -0.29036875 -0.29545625 -0.29036875 -0.5029375 0 -0.89410625 -0.9679 -1.452925 -1.742225 -1.00586875 -0.3593625 0.207475 -0.5807375 0.5909125 -0.5807375 1.00586875 0 1.46491875 1.90265 2.841275 2.9037 3.406775 1.00105625 -0.564775 2.90370625 -1.941125 2.90370625 -3.406775Z" stroke-width="0.0625"></path></svg>