<svg xmlns="http://www.w3.org/2000/svg" viewBox="0 0 16 16" fill="#000000" id="List-Bullets--Streamline-Phosphor" height="16" width="16"><desc>List Bullets Streamline Icon: https://streamlinehq.com</desc><path d="M4.08 2.77333125c0 -0.3608375 0.29249375 -0.65335 0.65333125 -0.65333125h10.4533375c0.50293125 0.000025 0.817275 0.54448125 0.5657875 0.980025 -0.1167125 0.20213125 -0.3323875 0.32664375 -0.5657875 0.32664375H4.73333125c-0.3608375 0.0000125 -0.65333125 -0.2925 -0.65333125 -0.6533375Zm11.10666875 4.5733375H4.73333125c-0.50293125 -0.000025 -0.8172625 0.54440625 -0.56581875 0.979975 0.11670625 0.20215625 0.3324 0.3266875 0.56581875 0.3266875h10.4533375c0.50293125 0 0.81726875 -0.54444375 0.5658 -0.98 -0.1167 -0.20213125 -0.3324 -0.32665625 -0.5658 -0.3266625Zm0 5.2266625H4.73333125c-0.50293125 0 -0.81726875 0.54444375 -0.5658 0.98 0.11670625 0.20214375 0.3323875 0.32666875 0.5658 0.32666875h10.4533375c0.50293125 -0.000025 0.817275 -0.54448125 0.5657875 -0.980025 -0.1167125 -0.202125 -0.3323875 -0.32664375 -0.5657875 -0.32664375ZM1.14 1.79333125C0.38559375 1.7933 -0.0859 2.60994375 0.291275 3.26329375c0.37716875 0.65335 1.320175 0.65339375 1.69740625 0.000075 0.08603125 -0.1489875 0.13131875 -0.31799375 0.13131875 -0.4900375 0 -0.5412375 -0.4387625 -0.98 -0.98 -0.98Zm0 5.22666875c-0.75440625 0 -1.22590625 0.81666875 -0.84870625 1.47 0.37720625 0.65333125 1.32020625 0.65333125 1.6974125 0 0.0860125 -0.14898125 0.13129375 -0.317975 0.13129375 -0.49 0 -0.5412375 -0.4387625 -0.98 -0.98 -0.98Zm0 5.22666875c-0.75440625 0 -1.22590625 0.8166625 -0.84870625 1.47 0.37720625 0.65333125 1.32020625 0.65333125 1.6974125 0 0.0860125 -0.14898125 0.13129375 -0.317975 0.13129375 -0.49 0 -0.5412375 -0.4387625 -0.98 -0.98 -0.98Z" stroke-width="0.0625"></path></svg>