<svg xmlns="http://www.w3.org/2000/svg" viewBox="0 0 16 16" fill="#000000" id="Magnifying-Glass-Minus--Streamline-Phosphor" height="16" width="16"><desc>Magnifying Glass Minus Streamline Icon: https://streamlinehq.com</desc><path d="M9.81534375 6.80325c0 0.3327 -0.269725 0.60240625 -0.60241875 0.60241875H4.39358125c-0.46374375 -0.00001875 -0.7535875 -0.50204375 -0.5217 -0.90365 0.1076125 -0.18636875 0.30649375 -0.301175 0.5217 -0.30118125h4.81934375c0.33269375 0.0000125 0.60241875 0.26971875 0.60241875 0.6024125Zm5.847975 8.86006875c-0.2353125 0.235575 -0.61710625 0.235575 -0.852425 0l-3.76963125 -3.7703875c-3.92446875 3.2688625 -9.9159125 1.06353125 -10.7845875 -3.96959375C-0.612 2.89021875 4.2935875 -1.19585625 9.0867375 0.56840625c4.3026375 1.58371875 5.74053125 6.95000625 2.80619375 10.47285625l3.7703875 3.7696375c0.235575 0.2353125 0.235575 0.61710625 0 0.85241875ZM6.80325 12.22501875c4.17368125 0 6.782225 -4.5181375 4.6953875 -8.13265 -2.0868375 -3.61450625 -7.30393125 -3.61450625 -9.39076875 0 -0.4758625 0.8242125 -0.72638125 1.7591625 -0.72638125 2.71088125 0.00331875 2.99298125 2.4287875 5.41844375 5.4217625 5.42176875Z" stroke-width="0.0625"></path></svg>