<svg xmlns="http://www.w3.org/2000/svg" viewBox="0 0 16 16" fill="#000000" id="Magnifying-Glass--Streamline-Phosphor" height="16" width="16"><desc>Magnifying Glass Streamline Icon: https://streamlinehq.com</desc><path d="m15.66345625 14.811025 -3.77041875 -3.7696625c3.2688875 -3.92450625 1.0635375 -9.916 -3.96963125 -10.7846875C2.89024375 -0.61200625 -1.19586875 4.293625 0.5684125 9.08681875c1.583725 4.302675 6.9500625 5.740575 10.47295 2.80621875l3.7696625 3.77041875c0.3281 0.3281 0.88834375 0.17798125 1.0084375 -0.27020625 0.0557375 -0.2080125 -0.00373125 -0.42995 -0.15600625 -0.582225ZM1.3815 6.8033125c0 -4.1737125 4.518175 -6.7822875 8.13271875 -4.695425 3.6145375 2.08685625 3.6145375 7.30399375 0 9.39085 -0.82415 0.475825 -1.7592625 0.72634375 -2.71090625 0.7263875 -2.99300625 -0.003325 -5.41849375 -2.42880625 -5.4218125 -5.4218125Z" stroke-width="0.0625"></path></svg>