<svg xmlns="http://www.w3.org/2000/svg" viewBox="0 0 16 16" fill="#000000" id="Navigation-Arrow--Streamline-Phosphor" height="16" width="16"><desc>Navigation Arrow Streamline Icon: https://streamlinehq.com</desc><path d="M15.037325 5.14734375 1.77143125 0.22994375l-0.01206875 -0.003775C0.88116875 -0.0762 0.00496875 0.68549375 0.18220625 1.59721875c0.010525 0.0541625 0.02475625 0.1075375 0.04259375 0.15975 0.0009125 0.00411875 0.002175 0.00815625 0.00376875 0.0120625l4.92116875 13.26589375c0.165775 0.48511875 0.623775 0.8094 1.1364125 0.8046125h0.02261875c0.5233 -0.00399375 0.98248125 -0.34960625 1.13113125 -0.8513625l0.004525 -0.01508125 1.646925 -5.88188125 5.88188125 -1.646925 0.01508125 -0.004525c0.8877125 -0.2731625 1.146825 -1.40486875 0.4664 -2.037075 -0.121025 -0.11245 -0.2638625 -0.19885 -0.41965 -0.2538375Zm-6.59750625 2.8723125c-0.20258125 0.056875 -0.36089375 0.2151875 -0.4177625 0.41776875l-1.7344 6.195575 -0.004525 -0.01281875L1.36346875 1.36106875l13.25835625 4.91815625 0.0120625 0.004525Z" stroke-width="0.0625"></path></svg>