<svg xmlns="http://www.w3.org/2000/svg" viewBox="0 0 16 16" fill="#000000" id="Plus-Square--Streamline-Phosphor" height="16" width="16"><desc>Plus Square Streamline Icon: https://streamlinehq.com</desc><path d="M14.53333125 0.16H1.46666875C0.7450125 0.16 0.16 0.7450125 0.16 1.46666875v13.0666625c0 0.721675 0.58499375 1.3067 1.30666875 1.30666875h13.0666625c0.721675 0.00003125 1.30666875 -0.58499375 1.30666875 -1.30666875V1.46666875c0 -0.72165625 -0.5850125 -1.30666875 -1.30666875 -1.30666875Zm0 14.37333125H1.46666875V1.46666875h13.0666625v13.0666625ZM11.92 8c0 0.3608125 -0.29251875 0.65331875 -0.65333125 0.65333125h-2.6133375v2.6133375c0 0.50293125 -0.54444375 0.81726875 -0.98 0.5658 -0.2021375 -0.11670625 -0.3266625 -0.3323875 -0.3266625 -0.5658v-2.6133375H4.73333125c-0.50293125 0 -0.81726875 -0.54444375 -0.5658 -0.98 0.1167125 -0.20215 0.33238125 -0.326675 0.5658 -0.3266625h2.6133375V4.73333125c0 -0.50293125 0.54444375 -0.81726875 0.98 -0.5658 0.2021375 0.11670625 0.3266625 0.3323875 0.3266625 0.5658v2.6133375h2.6133375c0.3608125 0.0000125 0.65333125 0.29251875 0.65333125 0.65333125Z" stroke-width="0.0625"></path></svg>