<svg xmlns="http://www.w3.org/2000/svg" viewBox="0 0 16 16" fill="#000000" id="Push-Pin--Streamline-Phosphor" height="16" width="16"><desc>Push Pin Streamline Icon: https://streamlinehq.com</desc><path d="M15.48628125 5.08803125 10.91154375 0.51405c-0.47101875 -0.471125 -1.2348 -0.471125 -1.70581875 0l-4.0425625 4.055375c-0.80353125 -0.25176875 -2.63825 -0.55554375 -4.55286875 0.990475 -0.5591625 0.449625 -0.60448125 1.28503125 -0.09724375 1.79250625l3.6423 3.64079375 -3.21565625 3.21339375c-0.328425 0.32843125 -0.1781625 0.88923125 0.27048125 1.00945 0.20821875 0.0557875 0.43038125 -0.0037375 0.58280625 -0.1561625l3.21339375 -3.21565625 3.6400375 3.6400375c0.22600625 0.22695 0.533 0.35468125 0.8532875 0.35503125h0.08518125c0.347875 -0.0241 0.66809375 -0.19824375 0.87740625 -0.47715 1.4804375 -1.96738125 1.337975 -3.56691875 0.99424375 -4.52271875l4.0305 -4.045575c0.47091875 -0.471225 0.47058125 -1.2350125 -0.00075 -1.70581875Zm-0.8532875 0.8532875 -4.3169375 4.33125625c-0.18281875 0.1835 -0.228025 0.46325 -0.11231875 0.69499375 0.7130875 1.42691875 -0.13568125 2.9088625 -0.7040375 3.6649125L1.3663375 6.4983625c0.910575 -0.7341875 1.78195625 -0.9279125 2.44830625 -0.9279125 0.42281875 -0.00576875 0.84215 0.077175 1.23093125 0.243475 0.2326375 0.11643125 0.51371875 0.07054375 0.69725 -0.11381875l4.3161875 -4.333525 4.57398125 4.57398125Z" stroke-width="0.0625"></path></svg>