<svg xmlns="http://www.w3.org/2000/svg" viewBox="0 0 16 16" fill="#000000" id="Sliders-Horizontal--Streamline-Phosphor" height="16" width="16"><desc>Sliders Horizontal Streamline Icon: https://streamlinehq.com</desc><path d="M0.81333125 4.73333125h2.695c0.49899375 1.94888125 2.9205875 2.62675625 4.35886875 1.220175 0.3421 -0.33455625 0.58578125 -0.756625 0.70446875 -1.220175h6.615c0.50293125 0 0.81726875 -0.54444375 0.5658 -0.98 -0.11670625 -0.2021375 -0.3323875 -0.3266625 -0.5658 -0.3266625h-6.615c-0.49899375 -1.94888125 -2.9205875 -2.62675625 -4.35886875 -1.220175 -0.3421 0.33455625 -0.58578125 0.756625 -0.70446875 1.220175h-2.695c-0.50293125 0 -0.81726875 0.54444375 -0.5658 0.98 0.11670625 0.2021375 0.3323875 0.3266625 0.5658 0.3266625Zm5.22666875 -1.96c1.005875 0.00005 1.63455625 1.0889625 1.131575 1.96005625 -0.502975 0.8710875 -1.7603125 0.87103125 -2.2632125 -0.00010625 -0.1146625 -0.198625 -0.17503125 -0.42393125 -0.17503125 -0.65328125 0 -0.721675 0.58499375 -1.3067 1.30666875 -1.30666875Zm9.14666875 8.4933375h-1.3883375c-0.4989875 -1.94888125 -2.92058125 -2.62675625 -4.3588625 -1.220175 -0.3421 0.33455625 -0.58578125 0.756625 -0.70446875 1.220175H0.81333125c-0.50293125 -0.000025 -0.8172625 0.54440625 -0.56581875 0.979975 0.11670625 0.20215625 0.3324 0.3266875 0.56581875 0.3266875H8.735c0.49899375 1.94888125 2.92058125 2.62675625 4.3588625 1.220175 0.34210625 -0.33455625 0.58578125 -0.756625 0.70446875 -1.220175h1.3883375c0.50293125 0 0.81726875 -0.54444375 0.5658 -0.98 -0.1167 -0.20213125 -0.3324 -0.32665625 -0.5658 -0.3266625Zm-3.92 1.96c-1.005875 0.00004375 -1.6345375 -1.08881875 -1.1316375 -1.95995 0.5029 -0.8711375 1.7602375 -0.87119375 2.2632125 -0.0001 0.11470625 0.19865 0.1750875 0.42399375 0.1750875 0.65338125 0 0.72163125 -0.5850375 1.3066375 -1.3066625 1.30666875Z" stroke-width="0.0625"></path></svg>