<svg xmlns="http://www.w3.org/2000/svg" viewBox="0 0 16 16" fill="#000000" id="Sliders--Streamline-Phosphor" height="16" width="16"><desc>Sliders Streamline Icon: https://streamlinehq.com</desc><path d="M3.17920625 6.266675V1.36815625c0 -0.4641125 -0.5024125 -0.75418125 -0.90434375 -0.522125 -0.1865375 0.1077 -0.30145 0.30673125 -0.30145 0.522125v4.89851875c-1.79841875 0.46046875 -2.4239625 2.6951125 -1.125975 4.02235625 0.30873125 0.31569375 0.6982125 0.54055625 1.125975 0.65008125v3.69273125c0 0.4641125 0.5024125 0.75418125 0.90434375 0.522125 0.1865375 -0.1077 0.30145 -0.30673125 0.30145 -0.522125v-3.69273125c1.79841875 -0.46046875 2.4239625 -2.69510625 1.125975 -4.02235 -0.30873125 -0.31569375 -0.6982125 -0.5405625 -1.125975 -0.6500875Zm-0.6029 3.5420125c-0.9282125 0 -1.50835 -1.004825 -1.04424375 -1.8086875 0.4641125 -0.8038625 1.62438125 -0.8038625 2.08849375 0 0.105825 0.1833 0.16154375 0.3912375 0.16154375 0.60289375 0 0.6659375 -0.53985 1.20579375 -1.20579375 1.20579375Zm6.02895625 -7.15938125V1.36815625c0 -0.4641125 -0.5024125 -0.75418125 -0.90434375 -0.522125 -0.1865375 0.1077 -0.30145 0.30673125 -0.30145 0.522125v1.28115c-1.79841875 0.46046875 -2.4239625 2.69510625 -1.125975 4.02235625 0.30873125 0.3156875 0.6982125 0.54055625 1.125975 0.65008125v7.3101c0 0.4641125 0.5024125 0.75418125 0.90434375 0.522125 0.1865375 -0.1077 0.30145 -0.30673125 0.30145 -0.522125V7.32174375c1.79841875 -0.46046875 2.4239625 -2.6951125 1.125975 -4.02235625 -0.30873125 -0.3156875 -0.6982125 -0.54055625 -1.125975 -0.65008125Zm-0.6029 3.54200625c-0.9282125 0 -1.50835 -1.004825 -1.04424375 -1.80868125 0.4641125 -0.8038625 1.62438125 -0.8038625 2.08849375 0 0.105825 0.1833 0.16154375 0.39123125 0.16154375 0.60289375 0 0.6659375 -0.53985 1.2057875 -1.20579375 1.2057875ZM15.84 11.014475c-0.0010375 -1.09958125 -0.74441875 -2.05978125 -1.8086875 -2.33621875V1.36815625c0 -0.4641125 -0.5024125 -0.75418125 -0.9043375 -0.522125 -0.1865375 0.1077 -0.30145 0.30673125 -0.30145 0.522125v7.3101c-1.79841875 0.46046875 -2.4239625 2.69510625 -1.125975 4.02235625 0.30873125 0.3156875 0.6982125 0.54055625 1.125975 0.65008125v1.28115c0 0.4641125 0.5024125 0.75418125 0.90434375 0.522125 0.1865375 -0.1077 0.30144375 -0.30673125 0.30144375 -0.522125v-1.28115c1.06426875 -0.2764375 1.80765 -1.2366375 1.8086875 -2.33621875Zm-2.41158125 1.2057875c-0.92821875 0 -1.50835 -1.004825 -1.04424375 -1.80868125 0.4641125 -0.8038625 1.62438125 -0.8038625 2.0884875 0 0.10583125 0.1833 0.16155 0.39123125 0.16155 0.60289375 0 0.6659375 -0.53985 1.2057875 -1.20579375 1.2057875Z" stroke-width="0.0625"></path></svg>